<?xml version="1.0" encoding="UTF-8"?>
<!DOCTYPE svg PUBLIC "-//W3C//DTD SVG 1.1//EN" "http://www.w3.org/Graphics/SVG/1.1/DTD/svg11.dtd">
<svg xmlns="http://www.w3.org/2000/svg" version="1.1" width="64px" height="64px" style="shape-rendering:geometricPrecision; text-rendering:geometricPrecision; image-rendering:optimizeQuality; fill-rule:evenodd; clip-rule:evenodd" xmlns:xlink="http://www.w3.org/1999/xlink">
<g><path style="opacity:0.777" fill="#491335" d="M 43.5,54.5 C 42.1667,54.5 40.8333,54.5 39.5,54.5C 48.0184,51.9871 52.3517,46.3204 52.5,37.5C 52.1667,36.8333 51.8333,36.1667 51.5,35.5C 56.7643,33.3139 58.431,29.6472 56.5,24.5C 54.6527,20.9764 52.986,17.3098 51.5,13.5C 49.4942,11.1037 47.8275,11.1037 46.5,13.5C 47.1098,14.391 47.4431,15.391 47.5,16.5C 47.6716,17.4916 47.3382,18.1583 46.5,18.5C 46.573,16.9731 45.9063,15.9731 44.5,15.5C 45.625,14.3478 45.625,13.3478 44.5,12.5C 39.5561,7.01173 34.8894,7.34506 30.5,13.5C 30.6236,14.1067 30.9569,14.44 31.5,14.5C 31.5,15.1667 31.5,15.8333 31.5,16.5C 30.8333,16.5 30.1667,16.5 29.5,16.5C 28.5,15.8333 27.5,15.1667 26.5,14.5C 26.9382,14.5654 27.2716,14.3988 27.5,14C 20.7598,11.7467 15.4265,13.58 11.5,19.5C 10.8669,19.1205 10.2003,18.7871 9.5,18.5C 9.94242,17.2613 10.6091,16.2613 11.5,15.5C 13.4341,14.8897 15.1007,13.8897 16.5,12.5C 18.1172,11.962 19.7839,11.6287 21.5,11.5C 23.7345,11.3801 25.9011,11.7135 28,12.5C 29.6424,12.0222 30.8091,11.0222 31.5,9.5C 32.0431,9.44001 32.3764,9.10667 32.5,8.5C 31,8.16667 29.5,7.83333 28,7.5C 24.0513,8.05771 20.2179,9.05771 16.5,10.5C 16.5,9.83333 16.5,9.16667 16.5,8.5C 19.9413,6.41537 23.7746,5.41537 28,5.5C 32.8408,5.92676 37.6742,6.42676 42.5,7C 43.1667,7.66667 43.8333,8.33333 44.5,9C 47.5706,9.14661 50.4039,9.97995 53,11.5C 54.7429,15.9838 56.7429,20.3171 59,24.5C 59.7284,27.2305 59.5617,29.8971 58.5,32.5C 59.4465,34.059 60.1132,35.7257 60.5,37.5C 57.9011,40.7284 55.4011,44.0617 53,47.5C 50.4986,50.8483 47.3319,53.1816 43.5,54.5 Z"/></g>
<g><path style="opacity:1" fill="#e72c3f" d="M 31.5,9.5 C 28.8127,9.33591 26.146,9.50258 23.5,10C 22.5842,10.2784 21.9175,10.7784 21.5,11.5C 19.7839,11.6287 18.1172,11.962 16.5,12.5C 15.4937,12.0623 15.4937,11.3957 16.5,10.5C 20.2179,9.05771 24.0513,8.05771 28,7.5C 29.5,7.83333 31,8.16667 32.5,8.5C 32.3764,9.10667 32.0431,9.44001 31.5,9.5 Z"/></g>
<g><path style="opacity:1" fill="#a61e32" d="M 31.5,9.5 C 30.8091,11.0222 29.6424,12.0222 28,12.5C 25.9011,11.7135 23.7345,11.3801 21.5,11.5C 21.9175,10.7784 22.5842,10.2784 23.5,10C 26.146,9.50258 28.8127,9.33591 31.5,9.5 Z"/></g>
<g><path style="opacity:1" fill="#c6283a" d="M 44.5,12.5 C 40.8146,12.7329 36.8146,13.0662 32.5,13.5C 31.8333,13.5 31.5,13.8333 31.5,14.5C 30.9569,14.44 30.6236,14.1067 30.5,13.5C 34.8894,7.34506 39.5561,7.01173 44.5,12.5 Z"/></g>
<g><path style="opacity:1" fill="#ea2a3e" d="M 56.5,24.5 C 56.6602,26.1992 56.4935,27.8659 56,29.5C 52.9016,25.3034 50.9016,20.6367 50,15.5C 49.1841,14.1772 48.0174,13.5106 46.5,13.5C 47.8275,11.1037 49.4942,11.1037 51.5,13.5C 52.986,17.3098 54.6527,20.9764 56.5,24.5 Z"/></g>
<g><path style="opacity:1" fill="#de6e75" d="M 16.5,10.5 C 15.4937,11.3957 15.4937,12.0623 16.5,12.5C 15.1007,13.8897 13.4341,14.8897 11.5,15.5C 12.1667,12.8333 13.8333,11.1667 16.5,10.5 Z"/></g>
<g><path style="opacity:1" fill="#df283d" d="M 26.5,14.5 C 24.2163,14.9752 22.2163,15.9752 20.5,17.5C 18.9826,17.5106 17.8159,18.1772 17,19.5C 16.4926,18.0039 16.9926,16.8373 18.5,16C 17.8333,15.3333 17.1667,15.3333 16.5,16C 11.8992,20.7709 11.3992,25.9376 15,31.5C 16.517,33.2395 18.017,34.9062 19.5,36.5C 17.6916,36.5086 16.0249,36.0086 14.5,35C 12.9958,32.4862 11.6624,29.9862 10.5,27.5C 10.4013,24.7628 10.7347,22.0961 11.5,19.5C 15.4265,13.58 20.7598,11.7467 27.5,14C 27.2716,14.3988 26.9382,14.5654 26.5,14.5 Z"/></g>
<g><path style="opacity:1" fill="#ad1f32" d="M 46.5,13.5 C 48.0174,13.5106 49.1841,14.1772 50,15.5C 50.9016,20.6367 52.9016,25.3034 56,29.5C 56.4935,27.8659 56.6602,26.1992 56.5,24.5C 58.431,29.6472 56.7643,33.3139 51.5,35.5C 49.8333,36.1667 48.1667,36.8333 46.5,37.5C 46.5893,34.2914 46.256,31.1248 45.5,28C 46.5,25 47.5,22 48.5,19C 48.472,17.9302 48.1386,17.0968 47.5,16.5C 47.4431,15.391 47.1098,14.391 46.5,13.5 Z"/></g>
<g><path style="opacity:1" fill="#ab1e32" d="M 20.5,17.5 C 15.6698,25.0234 17.0031,31.19 24.5,36C 22.8659,36.4935 21.1992,36.6602 19.5,36.5C 18.017,34.9062 16.517,33.2395 15,31.5C 11.3992,25.9376 11.8992,20.7709 16.5,16C 17.1667,15.3333 17.8333,15.3333 18.5,16C 16.9926,16.8373 16.4926,18.0039 17,19.5C 17.8159,18.1772 18.9826,17.5106 20.5,17.5 Z"/></g>
<g><path style="opacity:1" fill="#6f1634" d="M 32.5,13.5 C 32.5,13.8333 32.5,14.1667 32.5,14.5C 33.4475,15.9779 34.7809,16.9779 36.5,17.5C 33.001,17.259 32.6677,18.0924 35.5,20C 35.5367,21.949 35.0367,23.7824 34,25.5C 33.7104,23.9559 33.0437,22.6226 32,21.5C 32.4087,23.2251 32.2421,24.8918 31.5,26.5C 28.1512,27.8303 27.8179,27.3303 30.5,25C 29.552,24.5172 28.552,24.3505 27.5,24.5C 27.9258,22.8612 27.9258,21.5279 27.5,20.5C 27.44,19.9569 27.1067,19.6236 26.5,19.5C 25.8182,20.2427 25.1515,20.9094 24.5,21.5C 24.1667,21.5 23.8333,21.5 23.5,21.5C 23.5106,19.9826 24.1772,18.8159 25.5,18C 27.7078,17.8091 29.7078,17.3091 31.5,16.5C 31.5,15.8333 31.5,15.1667 31.5,14.5C 31.5,13.8333 31.8333,13.5 32.5,13.5 Z"/></g>
<g><path style="opacity:1" fill="#e3293d" d="M 44.5,15.5 C 45.9063,15.9731 46.573,16.9731 46.5,18.5C 45.4011,22.9986 44.0678,27.3319 42.5,31.5C 41.8614,30.9032 41.528,30.0698 41.5,29C 42.5963,25.8772 43.5963,22.7106 44.5,19.5C 44.2811,17.0847 42.9477,16.0847 40.5,16.5C 39.2486,15.528 39.582,14.8614 41.5,14.5C 42.5837,14.685 43.5837,15.0183 44.5,15.5 Z"/></g>
<g><path style="opacity:1" fill="#551335" d="M 44.5,12.5 C 45.625,13.3478 45.625,14.3478 44.5,15.5C 43.5837,15.0183 42.5837,14.685 41.5,14.5C 39.582,14.8614 39.2486,15.528 40.5,16.5C 41.0434,17.7421 41.3767,19.0755 41.5,20.5C 40.2011,24.396 39.5344,28.396 39.5,32.5C 40.791,32.7373 41.791,32.404 42.5,31.5C 44.0678,27.3319 45.4011,22.9986 46.5,18.5C 47.3382,18.1583 47.6716,17.4916 47.5,16.5C 48.1386,17.0968 48.472,17.9302 48.5,19C 47.5,22 46.5,25 45.5,28C 46.256,31.1248 46.5893,34.2914 46.5,37.5C 46.5654,37.9382 46.3988,38.2716 46,38.5C 45.7679,37.2625 45.2679,36.2625 44.5,35.5C 44.6495,34.448 44.4828,33.448 44,32.5C 42.5905,33.7875 41.0905,34.9542 39.5,36C 33.8973,36.822 28.564,38.4886 23.5,41C 22.7476,41.6708 22.4142,42.5041 22.5,43.5C 21.5,42.5 20.5,41.5 19.5,40.5C 18.5,40.8333 17.8333,41.5 17.5,42.5C 12.1667,40.5 8.5,36.8333 6.5,31.5C 7.16667,28.8333 7.83333,26.1667 8.5,23.5C 7.12287,30.0183 9.12287,35.1849 14.5,39C 15.1667,39.6667 15.8333,39.6667 16.5,39C 13.0142,35.8605 10.6808,32.0272 9.5,27.5C 9.83333,27.5 10.1667,27.5 10.5,27.5C 11.6624,29.9862 12.9958,32.4862 14.5,35C 16.0249,36.0086 17.6916,36.5086 19.5,36.5C 21.1992,36.6602 22.8659,36.4935 24.5,36C 17.0031,31.19 15.6698,25.0234 20.5,17.5C 22.2163,15.9752 24.2163,14.9752 26.5,14.5C 27.5,15.1667 28.5,15.8333 29.5,16.5C 26.6354,16.0548 24.1354,16.7215 22,18.5C 21.1834,21.9643 21.5167,25.2976 23,28.5C 28.3552,29.9222 28.6885,29.2555 24,26.5C 23.5065,24.8659 23.3398,23.1992 23.5,21.5C 23.8333,21.5 24.1667,21.5 24.5,21.5C 24.3832,23.4835 25.0499,25.1502 26.5,26.5C 26.362,24.5641 26.6953,22.5641 27.5,20.5C 27.9258,21.5279 27.9258,22.8612 27.5,24.5C 28.552,24.3505 29.552,24.5172 30.5,25C 27.8179,27.3303 28.1512,27.8303 31.5,26.5C 32.2421,24.8918 32.4087,23.2251 32,21.5C 33.0437,22.6226 33.7104,23.9559 34,25.5C 35.0367,23.7824 35.5367,21.949 35.5,20C 32.6677,18.0924 33.001,17.259 36.5,17.5C 38.3769,18.6591 38.8769,20.3258 38,22.5C 36.0394,25.4628 33.706,28.1294 31,30.5C 30.5172,31.448 30.3505,32.448 30.5,33.5C 31.5,33.5 32.5,33.5 33.5,33.5C 35.1667,33.5 36.8333,33.5 38.5,33.5C 38.5,31.1667 38.5,28.8333 38.5,26.5C 40.3788,22.135 39.7122,18.3017 36.5,15C 35.2068,14.51 33.8734,14.3433 32.5,14.5C 32.5,14.1667 32.5,13.8333 32.5,13.5C 36.8146,13.0662 40.8146,12.7329 44.5,12.5 Z"/></g>
<g><path style="opacity:1" fill="#e0283d" d="M 32.5,14.5 C 33.8734,14.3433 35.2068,14.51 36.5,15C 39.7122,18.3017 40.3788,22.135 38.5,26.5C 35.2812,27.7196 33.6146,30.0529 33.5,33.5C 32.5,33.5 31.5,33.5 30.5,33.5C 30.3505,32.448 30.5172,31.448 31,30.5C 33.706,28.1294 36.0394,25.4628 38,22.5C 38.8769,20.3258 38.3769,18.6591 36.5,17.5C 34.7809,16.9779 33.4475,15.9779 32.5,14.5 Z"/></g>
<g><path style="opacity:1" fill="#b42035" d="M 29.5,16.5 C 30.1667,16.5 30.8333,16.5 31.5,16.5C 29.7078,17.3091 27.7078,17.8091 25.5,18C 24.1772,18.8159 23.5106,19.9826 23.5,21.5C 23.3398,23.1992 23.5065,24.8659 24,26.5C 28.6885,29.2555 28.3552,29.9222 23,28.5C 21.5167,25.2976 21.1834,21.9643 22,18.5C 24.1354,16.7215 26.6354,16.0548 29.5,16.5 Z"/></g>
<g><path style="opacity:1" fill="#b0213a" d="M 27.5,20.5 C 26.6953,22.5641 26.362,24.5641 26.5,26.5C 25.0499,25.1502 24.3832,23.4835 24.5,21.5C 25.1515,20.9094 25.8182,20.2427 26.5,19.5C 27.1067,19.6236 27.44,19.9569 27.5,20.5 Z"/></g>
<g><path style="opacity:1" fill="#a81e32" d="M 40.5,16.5 C 42.9477,16.0847 44.2811,17.0847 44.5,19.5C 43.5963,22.7106 42.5963,25.8772 41.5,29C 41.528,30.0698 41.8614,30.9032 42.5,31.5C 41.791,32.404 40.791,32.7373 39.5,32.5C 39.5344,28.396 40.2011,24.396 41.5,20.5C 41.3767,19.0755 41.0434,17.7421 40.5,16.5 Z"/></g>
<g><path style="opacity:1" fill="#a31d32" d="M 38.5,26.5 C 38.5,28.8333 38.5,31.1667 38.5,33.5C 36.8333,33.5 35.1667,33.5 33.5,33.5C 33.6146,30.0529 35.2812,27.7196 38.5,26.5 Z"/></g>
<g><path style="opacity:1" fill="#a61e32" d="M 21.5,31.5 C 23.6669,31.542 26.0002,31.2086 28.5,30.5C 28.9059,31.5575 28.9059,32.8908 28.5,34.5C 25.5466,34.8504 23.2133,33.8504 21.5,31.5 Z"/></g>
<g><path style="opacity:1" fill="#e23647" d="M 9.5,27.5 C 10.6808,32.0272 13.0142,35.8605 16.5,39C 15.8333,39.6667 15.1667,39.6667 14.5,39C 9.12287,35.1849 7.12287,30.0183 8.5,23.5C 9.52112,23.8993 9.85445,25.2326 9.5,27.5 Z"/></g>
<g><path style="opacity:1" fill="#b62135" d="M 55.5,34.5 C 59.4132,36.3699 59.4132,38.3699 55.5,40.5C 54.3058,38.4844 54.3058,36.4844 55.5,34.5 Z"/></g>
<g><path style="opacity:1" fill="#c12236" d="M 44.5,35.5 C 44.765,39.4808 43.265,40.8141 40,39.5C 34.3179,41.5458 28.4845,42.8791 22.5,43.5C 22.4142,42.5041 22.7476,41.6708 23.5,41C 28.564,38.4886 33.8973,36.822 39.5,36C 41.0905,34.9542 42.5905,33.7875 44,32.5C 44.4828,33.448 44.6495,34.448 44.5,35.5 Z"/></g>
<g><path style="opacity:1" fill="#d5273b" d="M 6.5,23.5 C 6.5,26.1667 6.5,28.8333 6.5,31.5C 8.5,36.8333 12.1667,40.5 17.5,42.5C 19.7271,43.4006 20.7271,45.0672 20.5,47.5C 17.2084,47.3531 14.2084,46.3531 11.5,44.5C 7.77162,39.0373 5.10496,33.0373 3.5,26.5C 3.5,24.5 4.5,23.5 6.5,23.5 Z"/></g>
<g><path style="opacity:1" fill="#d9273d" d="M 19.5,40.5 C 19.3893,39.8826 19.056,39.3826 18.5,39C 27.1396,37.0286 27.4729,37.5286 19.5,40.5 Z"/></g>
<g><path style="opacity:1" fill="#ab1e32" d="M 49.5,38.5 C 49.7355,44.1095 47.0689,47.6095 41.5,49C 37.2589,50.4573 32.9255,50.7907 28.5,50C 27.2899,48.9609 26.2899,47.7942 25.5,46.5C 31.1112,46.7223 36.6112,46.0556 42,44.5C 43.9441,43.3125 45.4441,41.6458 46.5,39.5C 47.4168,38.8728 48.4168,38.5394 49.5,38.5 Z"/></g>
<g><path style="opacity:1" fill="#eb2e40" d="M 52.5,37.5 C 52.3517,46.3204 48.0184,51.9871 39.5,54.5C 35.1018,54.7059 30.7685,54.3726 26.5,53.5C 25.2222,51.2009 23.8889,48.8676 22.5,46.5C 23.4246,45.4376 24.4246,45.4376 25.5,46.5C 26.2899,47.7942 27.2899,48.9609 28.5,50C 32.9255,50.7907 37.2589,50.4573 41.5,49C 47.0689,47.6095 49.7355,44.1095 49.5,38.5C 50.209,37.596 51.209,37.2627 52.5,37.5 Z"/></g>
<g><path style="opacity:0.791" fill="#471537" d="M 16.5,8.5 C 16.5,9.16667 16.5,9.83333 16.5,10.5C 13.8333,11.1667 12.1667,12.8333 11.5,15.5C 10.6091,16.2613 9.94242,17.2613 9.5,18.5C 10.2003,18.7871 10.8669,19.1205 11.5,19.5C 10.7347,22.0961 10.4013,24.7628 10.5,27.5C 10.1667,27.5 9.83333,27.5 9.5,27.5C 9.85445,25.2326 9.52112,23.8993 8.5,23.5C 7.83333,26.1667 7.16667,28.8333 6.5,31.5C 6.5,28.8333 6.5,26.1667 6.5,23.5C 5.74943,22.4265 4.74943,22.2599 3.5,23C 2.20891,24.2917 2.20891,25.4583 3.5,26.5C 5.10496,33.0373 7.77162,39.0373 11.5,44.5C 11.5,44.8333 11.5,45.1667 11.5,45.5C 8.79837,42.7305 7.96504,43.3971 9,47.5C 12.5153,54.3968 18.0153,56.7301 25.5,54.5C 26.1667,54.5 26.5,54.1667 26.5,53.5C 30.7685,54.3726 35.1018,54.7059 39.5,54.5C 40.8333,54.5 42.1667,54.5 43.5,54.5C 41.7226,55.6005 39.7226,56.4338 37.5,57C 31.9734,56.7581 26.4734,56.9247 21,57.5C 16.4142,57.1949 12.4142,55.5282 9,52.5C 7.07854,43.2345 4.24521,34.2345 0.5,25.5C 1.36349,21.8871 3.69683,19.8871 7.5,19.5C 7.99014,13.6847 10.9901,10.018 16.5,8.5 Z"/></g>
<g><path style="opacity:1" fill="#c8afba" d="M 6.5,23.5 C 4.5,23.5 3.5,24.5 3.5,26.5C 2.20891,25.4583 2.20891,24.2917 3.5,23C 4.74943,22.2599 5.74943,22.4265 6.5,23.5 Z"/></g>
<g><path style="opacity:1" fill="#531335" d="M 44.5,35.5 C 45.2679,36.2625 45.7679,37.2625 46,38.5C 46.3988,38.2716 46.5654,37.9382 46.5,37.5C 48.1667,36.8333 49.8333,36.1667 51.5,35.5C 51.8333,36.1667 52.1667,36.8333 52.5,37.5C 51.209,37.2627 50.209,37.596 49.5,38.5C 48.4168,38.5394 47.4168,38.8728 46.5,39.5C 45.4441,41.6458 43.9441,43.3125 42,44.5C 36.6112,46.0556 31.1112,46.7223 25.5,46.5C 24.4246,45.4376 23.4246,45.4376 22.5,46.5C 23.8889,48.8676 25.2222,51.2009 26.5,53.5C 26.5,54.1667 26.1667,54.5 25.5,54.5C 24.3862,53.1147 23.3862,51.6147 22.5,50C 18.2007,49.7415 14.534,48.2415 11.5,45.5C 11.5,45.1667 11.5,44.8333 11.5,44.5C 14.2084,46.3531 17.2084,47.3531 20.5,47.5C 20.7271,45.0672 19.7271,43.4006 17.5,42.5C 17.8333,41.5 18.5,40.8333 19.5,40.5C 20.5,41.5 21.5,42.5 22.5,43.5C 28.4845,42.8791 34.3179,41.5458 40,39.5C 43.265,40.8141 44.765,39.4808 44.5,35.5 Z"/></g>
<g><path style="opacity:1" fill="#e72a3e" d="M 36.5,41.5 C 38.1992,41.3398 39.8659,41.5065 41.5,42C 38.4358,43.932 35.1024,44.5987 31.5,44C 33.3146,43.2432 34.9812,42.4098 36.5,41.5 Z"/></g>
<g><path style="opacity:1" fill="#c02338" d="M 11.5,45.5 C 14.534,48.2415 18.2007,49.7415 22.5,50C 23.3862,51.6147 24.3862,53.1147 25.5,54.5C 18.0153,56.7301 12.5153,54.3968 9,47.5C 7.96504,43.3971 8.79837,42.7305 11.5,45.5 Z"/></g>
</svg>
